<svg version="1.0" xmlns="http://www.w3.org/2000/svg"
 width="1105.000000pt" height="537.000000pt" viewBox="0 0 1105.000000 537.000000"
 preserveAspectRatio="xMidYMid meet">

<g transform="translate(0.000000,537.000000) scale(0.100000,-0.100000)"
fill="#000000" stroke="none">
<path d="M4190 2835 l0 -635 130 0 130 0 0 635 0 635 -130 0 -130 0 0 -635z"/>
<path d="M7625 3447 c-133 -75 -77 -277 77 -277 94 0 150 50 155 138 5 70 -17
112 -76 142 -52 26 -106 25 -156 -3z"/>
<path d="M878 2988 c-3 -429 -4 -444 -25 -490 -32 -70 -59 -83 -171 -83 -115
0 -117 -2 -127 -126 l-7 -86 44 -7 c231 -32 354 -3 455 107 106 114 113 161
113 698 l0 429 -139 0 -139 0 -4 -442z"/>
<path d="M1310 2816 l0 -616 145 0 145 0 0 205 0 205 118 0 c201 0 329 41 420
133 61 62 87 118 102 216 9 54 9 89 0 139 -27 157 -102 243 -266 304 -55 20
-80 22 -361 26 l-303 4 0 -616z m515 393 c95 -26 142 -101 132 -209 -7 -77
-35 -122 -93 -150 -36 -18 -64 -22 -152 -24 l-107 -1 -3 198 -2 197 92 0 c51
0 111 -5 133 -11z"/>
<path d="M3193 3175 c-152 -102 -243 -273 -243 -457 0 -161 50 -287 158 -396
196 -198 506 -222 726 -58 84 64 169 172 191 244 l7 23 -39 -19 c-60 -30 -130
-43 -225 -43 -154 0 -278 51 -389 162 -71 70 -128 170 -148 259 -15 66 -13
209 4 265 8 27 13 50 12 52 -2 1 -26 -13 -54 -32z"/>
<path d="M4943 3075 c-149 -40 -262 -152 -303 -300 -21 -76 -17 -217 9 -294
68 -200 210 -295 436 -293 147 1 268 45 342 124 l22 23 -50 58 c-60 68 -74 70
-161 26 -148 -74 -288 -36 -333 90 -30 87 -50 81 255 81 317 0 295 -10 288
129 -7 146 -73 259 -185 319 -95 50 -218 64 -320 37z m180 -179 c43 -18 73
-53 86 -101 6 -22 11 -43 11 -47 0 -5 -74 -8 -165 -8 -182 0 -177 -2 -146 65
41 89 130 127 214 91z"/>
<path d="M5945 3086 c-5 -3 -42 -14 -81 -25 -39 -11 -99 -39 -133 -62 l-62
-41 27 -47 c14 -25 35 -54 46 -63 29 -26 88 -22 143 8 33 19 67 28 116 32 68
5 69 4 104 -31 32 -32 35 -40 35 -91 0 -38 -4 -56 -12 -56 -53 0 -207 -26
-268 -46 -99 -31 -163 -74 -198 -133 -22 -38 -27 -58 -27 -116 0 -59 5 -78 28
-117 82 -140 312 -154 475 -30 28 21 35 23 43 11 5 -8 9 -20 9 -26 0 -7 9 -22
20 -33 17 -17 33 -20 105 -20 l85 0 0 298 c0 363 -10 411 -97 498 -62 62 -132
88 -248 91 -55 1 -104 1 -110 -1z m197 -585 c4 -67 2 -72 -45 -106 -32 -23
-54 -30 -103 -33 -57 -4 -65 -2 -88 21 -74 74 26 163 186 166 l46 1 4 -49z"/>
<path d="M7015 3084 c-49 -12 -102 -38 -137 -65 -38 -30 -58 -31 -58 -3 0 8
-11 26 -25 39 -22 23 -32 25 -115 25 l-90 0 0 -440 0 -440 130 0 130 0 0 308
c0 308 0 309 23 330 32 30 90 52 138 52 33 0 47 -6 75 -34 l34 -34 0 -311 0
-311 136 0 136 0 -4 323 c-4 302 -5 325 -26 377 -46 117 -134 181 -256 186
-39 2 -80 1 -91 -2z"/>
<path d="M8430 3076 c-48 -13 -109 -46 -130 -71 -19 -23 -28 -18 -44 19 -20
47 -41 56 -140 56 l-86 0 0 -440 0 -440 130 0 130 0 0 313 0 312 33 22 c78 53
150 58 199 14 l33 -29 3 -316 3 -316 134 0 135 0 0 258 c0 387 -15 468 -100
551 -74 72 -189 97 -300 67z"/>
<path d="M9258 3076 c-97 -28 -183 -96 -213 -170 -22 -51 -22 -150 0 -203 10
-25 40 -63 71 -92 45 -41 51 -51 36 -55 -27 -9 -78 -67 -90 -102 -14 -44 0
-110 32 -143 l27 -28 -29 -12 c-52 -22 -94 -74 -99 -125 -8 -63 2 -91 48 -141
51 -55 138 -91 257 -105 293 -36 522 101 522 312 0 73 -26 126 -79 162 -54 36
-91 44 -270 60 -174 15 -208 27 -185 64 9 13 31 18 105 23 150 11 241 50 299
130 41 57 53 101 48 174 l-4 64 41 7 c61 10 75 27 75 96 l0 58 -132 0 c-98 0
-145 5 -178 17 -60 21 -220 27 -282 9z m203 -176 c55 -30 65 -144 15 -187 -34
-29 -83 -37 -134 -23 -53 14 -77 48 -77 111 0 39 5 53 29 78 27 28 36 31 89
31 32 0 67 -5 78 -10z m78 -688 c48 -23 55 -69 16 -100 -37 -29 -126 -46 -203
-38 -131 14 -174 71 -108 145 21 23 24 23 140 17 83 -4 130 -11 155 -24z"/>
<path d="M7570 2640 l0 -440 130 0 130 0 0 440 0 440 -130 0 -130 0 0 -440z"/>
<path d="M4316 1600 c-49 -15 -76 -48 -76 -95 0 -50 22 -74 95 -106 91 -39
115 -79 75 -119 -26 -26 -84 -26 -131 -1 -27 15 -39 17 -48 8 -18 -18 -13 -25
29 -47 25 -13 59 -20 94 -20 47 0 61 4 87 28 25 22 32 36 33 69 1 53 -25 82
-105 118 -33 14 -67 37 -75 51 -15 22 -15 26 0 49 13 20 25 25 59 25 23 0 53
-7 66 -16 19 -14 25 -14 32 -3 14 22 11 27 -18 43 -40 20 -84 26 -117 16z"/>
<path d="M5727 1596 c-77 -28 -116 -92 -117 -189 0 -72 17 -113 64 -155 31
-27 44 -32 89 -32 71 0 142 43 107 65 -5 3 -20 -1 -32 -9 -12 -9 -41 -16 -63
-16 -75 0 -115 51 -115 145 0 100 44 155 123 155 19 0 40 -7 47 -15 9 -11 17
-12 31 -4 25 13 16 27 -35 50 -49 22 -50 22 -99 5z"/>
<path d="M4554 1587 c-2 -7 -3 -91 -2 -187 l3 -175 108 -3 c102 -3 107 -2 107
18 0 19 -6 20 -85 20 l-85 0 0 70 0 70 70 0 c63 0 70 2 70 20 0 18 -7 20 -70
20 l-70 0 0 60 0 60 85 0 c78 0 85 2 85 20 0 19 -7 20 -105 20 -77 0 -107 -4
-111 -13z"/>
<path d="M4860 1410 c0 -183 1 -190 20 -190 18 0 20 7 20 80 l0 80 38 0 c36 0
38 -2 80 -80 36 -66 48 -80 68 -80 13 0 24 3 24 6 0 3 -18 36 -40 74 -22 38
-40 73 -40 78 0 5 11 14 24 21 29 16 46 51 46 97 0 76 -44 104 -165 104 l-75
0 0 -190z m175 125 c30 -29 32 -55 6 -86 -16 -20 -28 -23 -77 -24 l-59 0 -3
68 -3 67 56 0 c46 0 60 -4 80 -25z"/>
<path d="M5140 1584 c0 -9 25 -95 56 -190 54 -170 56 -174 82 -174 26 0 29 5
56 93 16 50 42 130 57 177 35 103 35 112 7 108 -18 -3 -27 -24 -64 -148 -24
-80 -47 -152 -50 -160 -6 -14 -15 12 -80 228 -20 66 -29 82 -45 82 -11 0 -19
-7 -19 -16z"/>
<path d="M5480 1410 l0 -191 23 3 c22 3 22 4 22 188 0 184 0 185 -22 188 l-23
3 0 -191z"/>
<path d="M5960 1410 l0 -190 110 0 c103 0 110 1 110 20 0 18 -7 20 -84 20
l-84 0 -4 60 c-1 33 -1 65 0 70 2 6 35 10 73 10 62 0 69 2 69 20 0 18 -7 20
-70 20 l-70 0 0 60 0 60 80 0 c73 0 80 2 80 20 0 19 -7 20 -105 20 l-105 0 0
-190z"/>
</g>
</svg>
